<svg width="70" height="70" viewBox="0 0 70 70" fill="none" xmlns="http://www.w3.org/2000/svg">
<path d="M53.5021 30.7209C52.5056 31.7218 51.7426 32.9299 51.2672 34.2587C50.7919 35.5878 50.616 37.005 50.7519 38.4097L50.7046 38.3624C50.8444 40.016 50.621 41.6797 50.0502 43.2382C49.4794 44.7964 48.5749 46.2116 47.3999 47.385C46.2246 48.5581 44.8072 49.4614 43.2462 50.0311C41.6855 50.601 40.0188 50.8241 38.3629 50.6844L38.4103 50.7317C36.4294 50.5477 34.4398 50.9779 32.7127 51.9641C30.9858 52.9504 29.6055 54.4443 28.7602 56.2425C27.9149 58.0406 27.6454 60.0551 27.9887 62.0118C28.3324 63.9683 29.2718 65.7714 30.6792 67.1753C32.0867 68.5792 33.8935 69.5155 35.8533 69.8565C37.8134 70.1978 39.8308 69.9269 41.6311 69.0813C43.4313 68.2355 44.9263 66.8563 45.9125 65.1312C46.8988 63.406 47.3281 61.4193 47.142 59.4416L47.1919 59.4889C47.052 57.8356 47.2753 56.1716 47.8461 54.6131C48.4169 53.0549 49.3216 51.6397 50.4966 50.4663C51.6719 49.2932 53.0893 48.3899 54.65 47.8202C56.211 47.2503 57.8774 47.0272 59.5336 47.1669L59.4836 47.1196C61.1016 47.2648 62.7305 46.9999 64.2189 46.3494C65.707 45.6989 67.0069 44.6838 67.9976 43.3983C68.9883 42.1129 69.6382 40.5982 69.8864 38.9953C70.1349 37.3922 69.974 35.7526 69.4187 34.228C68.8634 32.7036 67.9316 31.3438 66.7098 30.2747C65.488 29.2055 64.0156 28.4615 62.4291 28.1119C60.8427 27.7622 59.1933 27.8179 57.6342 28.2738C56.0751 28.7301 54.6566 29.5717 53.51 30.7209H53.5021Z" fill="#3344CC"/>
<path d="M34.1062 44.5418L34.0562 44.4946C35.4637 44.6361 36.885 44.4636 38.2178 43.9895C39.5503 43.5154 40.7608 42.7518 41.7615 41.7535C42.7619 40.7552 43.5281 39.5471 44.0037 38.217C44.4796 36.8869 44.6534 35.4681 44.5127 34.0626L44.5627 34.1099C44.4228 32.4563 44.6463 30.7926 45.2168 29.2341C45.7876 27.6759 46.6924 26.2607 47.8674 25.0873C49.0426 23.9142 50.4601 23.0109 52.0208 22.4412C53.5818 21.8712 55.2482 21.6483 56.9043 21.7879L56.8544 21.7406C58.8355 21.9265 60.8256 21.4974 62.5535 20.5124C64.2817 19.5273 65.6631 18.034 66.5097 16.2361C67.3563 14.4384 67.6269 12.4235 67.2846 10.4665C66.9422 8.50954 66.0036 6.70565 64.5964 5.30088C63.1895 3.89614 61.3827 2.95889 59.4226 2.61706C57.4625 2.27519 55.4446 2.54534 53.6438 3.39066C51.843 4.23595 50.3475 5.61529 49.3608 7.3405C48.374 9.06568 47.9444 11.0528 48.1306 13.0307L48.0832 12.9808C48.2234 14.6343 48.0004 16.2984 47.4299 17.857C46.8593 19.4155 45.9546 20.8309 44.7796 22.0044C43.6043 23.1776 42.1866 24.0809 40.6257 24.6505C39.0644 25.2201 37.3977 25.4427 35.7416 25.3028L35.7889 25.3527C34.3815 25.2112 32.9599 25.3837 31.6274 25.8578C30.2949 26.3316 29.0844 27.0955 28.0837 28.0938C27.083 29.0921 26.3171 30.3001 25.8412 31.6302C25.3656 32.9604 25.1918 34.3792 25.3324 35.7847L25.2851 35.7374C25.4245 37.3907 25.2007 39.0544 24.6299 40.6127C24.0588 42.1706 23.1544 43.5858 21.9794 44.7589C20.8042 45.9321 19.387 46.8351 17.8264 47.4052C16.2658 47.9751 14.5994 48.1985 12.9435 48.0594L12.9908 48.1066C11.0097 47.9208 9.01945 48.3497 7.29149 49.3349C5.56355 50.3201 4.18202 51.8132 3.33538 53.6111C2.48871 55.409 2.21811 57.4237 2.56052 59.3807C2.90292 61.3377 3.84167 63.1416 5.24865 64.5463C6.65566 65.9512 8.46242 66.8884 10.4225 67.2302C12.3827 67.5719 14.4007 67.3018 16.2014 66.4566C18.002 65.6113 19.4977 64.2321 20.4844 62.5069C21.4711 60.7815 21.9007 58.7946 21.7146 56.8166L21.7646 56.8638C21.6247 55.2103 21.8482 53.5466 22.419 51.9881C22.9895 50.4298 23.8942 49.0147 25.0692 47.8413C26.2445 46.6681 27.6619 45.7648 29.2227 45.1952C30.7836 44.6253 32.45 44.4022 34.1062 44.5418Z" fill="#3344CC"/>
<path d="M16.4851 39.2733C17.4816 38.2727 18.2445 37.0646 18.7195 35.7355C19.1944 34.4065 19.3696 32.989 19.2326 31.5845L19.2825 31.6318C19.1427 29.978 19.366 28.3135 19.9371 26.7547C20.5082 25.196 21.4133 23.7805 22.5891 22.6071C23.7649 21.4338 25.1828 20.5308 26.7443 19.9613C28.3058 19.3918 29.9731 19.1694 31.6295 19.3098L31.5795 19.2626C33.5599 19.4478 35.5494 19.0186 37.2765 18.0336C39.0037 17.0486 40.3843 15.5557 41.2307 13.7584C42.0767 11.9612 42.347 9.94709 42.0047 7.99082C41.6624 6.03455 40.7237 4.23135 39.3174 2.8271C37.911 1.42286 36.1047 0.485925 34.1454 0.14409C32.1861 -0.19777 30.1687 0.0721377 28.3687 0.916932C26.5685 1.76173 25.0732 3.14033 24.0867 4.86472C23.1 6.58912 22.6701 8.57539 22.8557 10.5526L22.8084 10.5054C22.9483 12.1588 22.7248 13.8227 22.154 15.381C21.5832 16.9394 20.6787 18.3546 19.5036 19.5279C18.3284 20.7012 16.911 21.6043 15.3501 22.174C13.7893 22.7439 12.1228 22.967 10.4667 22.8274L10.5141 22.8746C8.89595 22.7297 7.26737 22.9951 5.77927 23.6459C4.29118 24.2966 2.99168 25.312 2.00122 26.5977C1.01076 27.8832 0.361386 29.3979 0.113238 31.0007C-0.134883 32.6039 0.0262632 34.2435 0.581742 35.7676C1.13722 37.2919 2.0691 38.6515 3.29099 39.7204C4.51287 40.7896 5.98525 41.5332 7.57168 41.8829C9.15808 42.2323 10.8072 42.1764 12.3663 41.7204C13.9253 41.2642 15.3438 40.4226 16.4903 39.2733H16.4851Z" fill="#3344CC"/>
</svg>
